<svg width="512" height="512" viewBox="0 0 512 512" fill="none" xmlns="http://www.w3.org/2000/svg">
  <defs>
    <linearGradient id="bg" x1="52" y1="42" x2="464" y2="470" gradientUnits="userSpaceOnUse">
      <stop offset="0" stop-color="#F8ECCE"/>
      <stop offset="0.52" stop-color="#E9D0A2"/>
      <stop offset="1" stop-color="#CFA468"/>
    </linearGradient>
    <radialGradient id="glow" cx="0" cy="0" r="1" gradientUnits="userSpaceOnUse" gradientTransform="translate(350 128) rotate(135) scale(210)">
      <stop stop-color="#FFF4DC" stop-opacity="0.92"/>
      <stop offset="1" stop-color="#FFF4DC" stop-opacity="0"/>
    </radialGradient>
    <linearGradient id="ink" x1="116" y1="88" x2="384" y2="438" gradientUnits="userSpaceOnUse">
      <stop stop-color="#231A15"/>
      <stop offset="0.5" stop-color="#3A2A1F"/>
      <stop offset="1" stop-color="#5A3D2A"/>
    </linearGradient>
    <linearGradient id="seal" x1="176" y1="168" x2="336" y2="340" gradientUnits="userSpaceOnUse">
      <stop stop-color="#9C2F1B"/>
      <stop offset="0.6" stop-color="#7B2518"/>
      <stop offset="1" stop-color="#5D1E14"/>
    </linearGradient>
    <linearGradient id="jade" x1="168" y1="162" x2="364" y2="344" gradientUnits="userSpaceOnUse">
      <stop stop-color="#86A98C"/>
      <stop offset="1" stop-color="#506C5D"/>
    </linearGradient>
    <filter id="grain" x="0" y="0" width="512" height="512" filterUnits="userSpaceOnUse" color-interpolation-filters="sRGB">
      <feTurbulence type="fractalNoise" baseFrequency="0.9" numOctaves="2" stitchTiles="stitch"/>
      <feColorMatrix type="saturate" values="0"/>
      <feComponentTransfer>
        <feFuncA type="table" tableValues="0 0.05"/>
      </feComponentTransfer>
    </filter>
    <filter id="shadow" x="46" y="62" width="420" height="388" filterUnits="userSpaceOnUse" color-interpolation-filters="sRGB">
      <feGaussianBlur stdDeviation="10"/>
    </filter>
  </defs>

  <rect x="18" y="18" width="476" height="476" rx="104" fill="url(#bg)"/>
  <rect x="18" y="18" width="476" height="476" rx="104" fill="url(#glow)"/>

  <g opacity="0.4">
    <rect x="94" y="80" width="11" height="352" rx="5.5" fill="#8A633D"/>
    <rect x="128" y="86" width="9" height="338" rx="4.5" fill="#8A633D"/>
    <rect x="159" y="78" width="8" height="354" rx="4" fill="#8A633D"/>
    <rect x="191" y="84" width="8" height="344" rx="4" fill="#8A633D"/>
    <rect x="223" y="90" width="7" height="330" rx="3.5" fill="#8A633D"/>
    <rect x="254" y="82" width="6" height="348" rx="3" fill="#8A633D"/>
    <rect x="284" y="88" width="7" height="336" rx="3.5" fill="#8A633D"/>
    <rect x="316" y="80" width="8" height="352" rx="4" fill="#8A633D"/>
    <rect x="349" y="86" width="9" height="340" rx="4.5" fill="#8A633D"/>
    <rect x="384" y="78" width="11" height="354" rx="5.5" fill="#8A633D"/>
  </g>

  <g opacity="0.3" filter="url(#shadow)">
    <path d="M86 384C148 334 216 320 272 340C316 355 360 348 426 296" stroke="#7D5836" stroke-width="20" stroke-linecap="round"/>
  </g>

  <path d="M256 78C164 78 86 156 86 256C86 356 164 434 256 434C348 434 426 356 426 256" stroke="url(#ink)" stroke-width="28" stroke-linecap="round"/>
  <path d="M426 256C426 156 348 78 256 78" stroke="#6E4C32" stroke-width="28" stroke-linecap="round" opacity="0.82"/>

  <circle cx="256" cy="256" r="90" fill="url(#seal)"/>
  <circle cx="256" cy="256" r="74" fill="#E8C58E" opacity="0.95"/>

  <path d="M216 214H296" stroke="#512214" stroke-width="12" stroke-linecap="round"/>
  <path d="M208 252H304" stroke="#512214" stroke-width="12" stroke-linecap="round"/>
  <path d="M224 289H288" stroke="#512214" stroke-width="12" stroke-linecap="round"/>
  <path d="M236 205V304" stroke="#512214" stroke-width="10" stroke-linecap="round"/>
  <path d="M276 205V304" stroke="#512214" stroke-width="10" stroke-linecap="round"/>

  <path d="M146 292C180 274 212 288 224 320" stroke="url(#jade)" stroke-width="10" stroke-linecap="round"/>
  <path d="M366 210C334 226 316 254 316 286" stroke="url(#jade)" stroke-width="10" stroke-linecap="round"/>
  <path d="M330 168C304 184 292 206 290 234" stroke="url(#jade)" stroke-width="8" stroke-linecap="round" opacity="0.95"/>

  <path d="M102 146C132 122 168 112 202 116" stroke="#6C4C31" stroke-width="6" stroke-linecap="round"/>
  <path d="M306 398C344 404 376 398 406 376" stroke="#6C4C31" stroke-width="6" stroke-linecap="round"/>

  <rect x="18" y="18" width="476" height="476" rx="104" stroke="#5A3D24" stroke-width="8" opacity="0.42"/>
  <rect x="18" y="18" width="476" height="476" rx="104" filter="url(#grain)"/>
</svg>
